<?xml version="1.0" encoding="UTF-8"?>
<svg xmlns="http://www.w3.org/2000/svg" xmlns:xlink="http://www.w3.org/1999/xlink" width="208px" height="40px" viewBox="0 0 181 34" version="1.1">
<g id="surface1">
<path style=" stroke:none;fill-rule:nonzero;fill:rgb(92.941176%,10.980392%,14.117647%);fill-opacity:1;" d="M 13.929688 3.441406 C 11.363281 3.683594 8.996094 4.628906 6.96875 6.238281 C 6.410156 6.6875 5.410156 7.679688 4.972656 8.222656 C 3.378906 10.21875 2.425781 12.5625 2.15625 15.140625 C 2.085938 15.824219 2.125 17.691406 2.230469 18.324219 C 2.6875 21.210938 3.925781 23.660156 5.917969 25.640625 C 6.601562 26.328125 7.078125 26.710938 7.871094 27.242188 C 9.125 28.078125 10.449219 28.671875 11.859375 29.03125 C 15.851562 30.042969 20.042969 29.152344 23.253906 26.605469 C 23.820312 26.15625 24.820312 25.164062 25.257812 24.617188 C 26.804688 22.679688 27.75 20.417969 28.050781 17.933594 C 28.167969 16.953125 28.125 15.175781 27.960938 14.222656 C 26.84375 7.886719 21.410156 3.339844 15.023438 3.394531 C 14.652344 3.398438 14.164062 3.417969 13.929688 3.441406 Z M 27.515625 14.09375 C 27.332031 14.265625 21.054688 18.695312 20.875 18.777344 C 20.628906 18.890625 20.148438 18.9375 19.945312 18.867188 C 19.867188 18.839844 19.425781 18.570312 18.960938 18.269531 C 18.148438 17.742188 18.105469 17.722656 17.832031 17.707031 C 17.609375 17.691406 17.515625 17.710938 17.359375 17.796875 C 17.25 17.859375 16.300781 18.523438 15.246094 19.28125 C 14.191406 20.039062 13.214844 20.714844 13.078125 20.78125 C 12.585938 21.03125 12.480469 21.039062 9.078125 21.039062 C 6.011719 21.039062 5.949219 21.039062 6.035156 20.953125 C 6.085938 20.90625 7.5 19.878906 9.171875 18.671875 C 10.84375 17.464844 12.246094 16.441406 12.28125 16.40625 C 12.34375 16.34375 11.765625 16.339844 7.507812 16.367188 C 4.394531 16.386719 2.664062 16.382812 2.679688 16.355469 C 2.683594 16.332031 3.078125 16.027344 3.550781 15.691406 L 4.410156 15.074219 L 10.65625 15.050781 C 14.09375 15.035156 17.027344 15.039062 17.179688 15.0625 C 17.671875 15.125 17.863281 15.253906 18.863281 16.230469 C 19.375 16.726562 19.851562 17.164062 19.933594 17.203125 C 20.125 17.300781 20.480469 17.296875 20.710938 17.191406 C 20.957031 17.078125 24 14.894531 23.992188 14.839844 C 23.988281 14.8125 23.710938 14.644531 23.375 14.460938 C 23.042969 14.277344 22.746094 14.105469 22.714844 14.078125 C 22.679688 14.042969 23.339844 14.027344 25.121094 14.027344 C 27.230469 14.027344 27.570312 14.035156 27.515625 14.09375 Z M 27.515625 14.09375 "/>
<path style=" stroke:none;fill-rule:nonzero;fill:rgb(0%,50.196078%,24.313725%);fill-opacity:1;" d="M 38.742188 3.421875 L 37.960938 3.4375 L 37.898438 3.683594 C 37.738281 4.230469 34.710938 15.972656 34.710938 16.023438 C 34.710938 16.066406 35.511719 16.074219 38.183594 16.058594 C 41.921875 16.035156 42.171875 16.019531 43.167969 15.769531 C 44.804688 15.355469 45.925781 14.496094 46.53125 13.171875 C 47.3125 11.46875 47.074219 10.003906 45.921875 9.464844 L 45.621094 9.328125 L 45.957031 9.097656 C 46.882812 8.484375 47.609375 7.566406 47.871094 6.691406 C 48.320312 5.164062 47.730469 4.085938 46.21875 3.667969 C 45.386719 3.441406 45.117188 3.421875 42.234375 3.414062 C 40.738281 3.410156 39.167969 3.414062 38.742188 3.421875 Z M 43.449219 6.414062 C 43.621094 6.453125 43.742188 6.515625 43.84375 6.617188 C 43.980469 6.753906 44 6.800781 44 7.023438 C 44 7.574219 43.683594 8.050781 43.152344 8.296875 L 42.859375 8.429688 L 41.75 8.445312 C 40.851562 8.457031 40.644531 8.449219 40.664062 8.398438 C 40.671875 8.367188 40.800781 7.890625 40.933594 7.347656 L 41.183594 6.363281 L 42.195312 6.363281 C 42.773438 6.363281 43.3125 6.386719 43.449219 6.414062 Z M 42.683594 10.867188 C 42.792969 10.902344 42.957031 10.996094 43.054688 11.078125 L 43.230469 11.230469 L 43.230469 11.617188 C 43.226562 12.066406 43.121094 12.351562 42.847656 12.625 C 42.472656 13 42 13.097656 40.554688 13.097656 L 39.457031 13.097656 L 39.753906 11.945312 C 39.917969 11.316406 40.050781 10.789062 40.050781 10.785156 C 40.050781 10.738281 42.511719 10.816406 42.683594 10.867188 Z M 42.683594 10.867188 "/>
<path style=" stroke:none;fill-rule:nonzero;fill:rgb(0%,50.196078%,24.313725%);fill-opacity:1;" d="M 50.695312 4.492188 C 50.535156 5.101562 50.40625 5.609375 50.40625 5.632812 C 50.40625 5.652344 51.195312 5.660156 52.15625 5.65625 L 53.90625 5.644531 L 54.175781 4.644531 C 54.320312 4.097656 54.457031 3.589844 54.46875 3.515625 L 54.503906 3.390625 L 50.988281 3.390625 Z M 50.695312 4.492188 "/>
<path style=" stroke:none;fill-rule:nonzero;fill:rgb(0%,50.196078%,24.313725%);fill-opacity:1;" d="M 76.65625 6.554688 C 74.058594 6.714844 72.539062 7.609375 71.949219 9.332031 C 71.898438 9.472656 71.859375 9.589844 71.859375 9.601562 C 71.859375 9.605469 72.621094 9.613281 73.550781 9.613281 L 75.242188 9.613281 L 75.378906 9.367188 C 75.621094 8.9375 76.050781 8.730469 76.683594 8.730469 C 77.125 8.730469 77.347656 8.792969 77.539062 8.964844 C 77.667969 9.074219 77.6875 9.128906 77.683594 9.308594 C 77.675781 9.730469 77.347656 10.019531 76.667969 10.195312 C 76.511719 10.234375 75.910156 10.332031 75.320312 10.410156 C 73.753906 10.613281 73.035156 10.777344 72.347656 11.078125 C 71.21875 11.578125 70.472656 12.554688 70.253906 13.800781 C 69.960938 15.5 71.242188 16.460938 73.480469 16.214844 C 74.417969 16.113281 75.183594 15.84375 75.921875 15.351562 C 76.15625 15.199219 76.359375 15.0625 76.382812 15.054688 C 76.402344 15.042969 76.40625 15.246094 76.386719 15.507812 L 76.355469 15.976562 L 78.167969 15.976562 C 79.90625 15.976562 79.980469 15.972656 80.011719 15.890625 C 80.023438 15.835938 79.992188 15.738281 79.921875 15.628906 C 79.714844 15.324219 79.71875 15.25 80.054688 13.925781 C 81.003906 10.226562 81.195312 9.460938 81.246094 9.085938 C 81.441406 7.59375 80.78125 6.863281 79.03125 6.625 C 78.367188 6.53125 77.417969 6.503906 76.65625 6.554688 Z M 76.964844 12.273438 C 76.734375 13.09375 76.289062 13.710938 75.726562 13.988281 C 75.199219 14.25 74.445312 14.226562 74.121094 13.933594 C 73.992188 13.816406 73.972656 13.777344 73.976562 13.578125 C 73.984375 13.140625 74.316406 12.730469 74.808594 12.546875 C 74.953125 12.488281 75.421875 12.363281 75.84375 12.265625 C 76.273438 12.167969 76.695312 12.054688 76.78125 12.015625 C 77.054688 11.894531 77.066406 11.90625 76.964844 12.273438 Z M 76.964844 12.273438 "/>
<path style=" stroke:none;fill-rule:nonzero;fill:rgb(0%,50.196078%,24.313725%);fill-opacity:1;" d="M 89.273438 6.574219 C 88.425781 6.753906 87.71875 7.148438 86.972656 7.859375 C 86.78125 8.039062 86.628906 8.160156 86.628906 8.132812 C 86.628906 8.082031 86.875 7.074219 86.933594 6.859375 C 86.957031 6.785156 86.867188 6.78125 85.34375 6.789062 L 83.730469 6.804688 L 82.554688 11.355469 C 81.910156 13.859375 81.378906 15.921875 81.378906 15.941406 C 81.378906 15.964844 82.167969 15.976562 83.136719 15.976562 L 84.886719 15.976562 L 85.550781 13.414062 C 86.265625 10.644531 86.390625 10.285156 86.765625 9.875 C 87.050781 9.566406 87.375 9.425781 87.84375 9.398438 C 88.183594 9.378906 88.253906 9.386719 88.433594 9.484375 C 88.785156 9.664062 88.832031 9.773438 88.828125 10.371094 C 88.828125 10.886719 88.824219 10.914062 88.195312 13.308594 C 87.847656 14.636719 87.546875 15.777344 87.53125 15.847656 L 87.5 15.976562 L 91.019531 15.976562 L 91.773438 13.039062 C 92.191406 11.425781 92.5625 9.933594 92.59375 9.730469 C 92.683594 9.230469 92.683594 8.449219 92.59375 8.105469 C 92.390625 7.328125 91.898438 6.84375 91.082031 6.613281 C 90.722656 6.511719 89.65625 6.488281 89.273438 6.574219 Z M 89.273438 6.574219 "/>
<path style=" stroke:none;fill-rule:nonzero;fill:rgb(0%,50.196078%,24.313725%);fill-opacity:1;" d="M 60.949219 6.625 C 60.183594 6.785156 59.421875 7.195312 58.683594 7.839844 C 58.476562 8.015625 58.347656 8.105469 58.367188 8.054688 C 58.378906 8.003906 58.449219 7.710938 58.523438 7.394531 L 58.660156 6.828125 L 57.042969 6.828125 C 56.152344 6.828125 55.421875 6.835938 55.421875 6.847656 C 55.421875 6.871094 53.105469 15.839844 53.074219 15.941406 C 53.050781 16.019531 53.152344 16.023438 54.8125 16.023438 L 56.578125 16.023438 L 56.625 15.847656 C 56.648438 15.753906 56.929688 14.667969 57.257812 13.433594 C 57.578125 12.203125 57.882812 11.058594 57.933594 10.902344 C 58.167969 10.226562 58.523438 9.746094 58.941406 9.554688 C 59.242188 9.414062 59.832031 9.410156 60.066406 9.546875 C 60.332031 9.699219 60.398438 9.890625 60.375 10.382812 C 60.359375 10.730469 60.246094 11.230469 59.695312 13.347656 C 59.332031 14.75 59.023438 15.925781 59.011719 15.964844 C 58.992188 16.015625 59.289062 16.023438 60.757812 16.023438 L 62.523438 16.023438 L 62.570312 15.847656 C 62.597656 15.753906 62.882812 14.640625 63.21875 13.371094 C 63.546875 12.109375 63.886719 10.902344 63.964844 10.6875 C 64.160156 10.1875 64.46875 9.78125 64.800781 9.597656 C 65.035156 9.464844 65.09375 9.453125 65.476562 9.453125 C 65.949219 9.453125 66.082031 9.507812 66.242188 9.769531 C 66.371094 9.976562 66.363281 10.445312 66.222656 11.054688 C 66.15625 11.324219 65.847656 12.546875 65.53125 13.773438 C 65.210938 15 64.957031 16.011719 64.964844 16.015625 C 64.972656 16.023438 65.773438 16.015625 66.738281 15.992188 L 68.492188 15.953125 L 69.199219 13.238281 C 70.136719 9.621094 70.121094 9.710938 70.121094 8.800781 C 70.113281 7.96875 70.082031 7.828125 69.789062 7.398438 C 69.375 6.796875 68.53125 6.507812 67.34375 6.5625 C 66.710938 6.589844 66.285156 6.691406 65.753906 6.9375 C 65.300781 7.148438 64.765625 7.519531 64.367188 7.902344 L 64.027344 8.214844 L 63.949219 7.953125 C 63.84375 7.625 63.640625 7.296875 63.417969 7.101562 C 62.902344 6.648438 61.8125 6.4375 60.949219 6.625 Z M 60.949219 6.625 "/>
<path style=" stroke:none;fill-rule:nonzero;fill:rgb(0%,50.196078%,24.313725%);fill-opacity:1;" d="M 50.0625 6.90625 C 50.050781 6.953125 49.523438 8.988281 48.898438 11.425781 C 48.269531 13.863281 47.746094 15.898438 47.730469 15.941406 C 47.707031 16.019531 47.816406 16.023438 49.472656 16.023438 C 50.449219 16.023438 51.242188 16.011719 51.242188 15.996094 C 51.242188 15.96875 53.554688 6.980469 53.585938 6.882812 C 53.601562 6.84375 53.234375 6.828125 51.847656 6.828125 C 50.210938 6.828125 50.085938 6.832031 50.0625 6.90625 Z M 50.0625 6.90625 "/>
<path style=" stroke:none;fill-rule:nonzero;fill:rgb(0%,50.196078%,24.313725%);fill-opacity:1;" d="M 63.199219 19.726562 C 62.710938 19.800781 62.117188 20 61.738281 20.214844 C 60.457031 20.933594 59.519531 22.355469 59.128906 24.171875 C 58.992188 24.789062 58.980469 26.257812 59.105469 26.785156 C 59.429688 28.1875 60.234375 29.089844 61.457031 29.433594 C 61.710938 29.503906 61.933594 29.519531 62.734375 29.511719 C 63.679688 29.511719 63.730469 29.507812 64.246094 29.371094 C 65.171875 29.117188 66.339844 28.574219 66.433594 28.355469 C 66.46875 28.273438 67.214844 24.433594 67.214844 24.335938 C 67.214844 24.304688 66.4375 24.296875 65.257812 24.300781 L 63.296875 24.316406 L 63.144531 25.082031 C 63.066406 25.503906 62.996094 25.863281 62.996094 25.878906 C 62.992188 25.902344 63.492188 25.917969 64.105469 25.917969 C 64.96875 25.917969 65.21875 25.933594 65.214844 25.972656 C 65.214844 26.007812 65.160156 26.328125 65.089844 26.683594 L 64.964844 27.335938 L 64.617188 27.484375 C 63.890625 27.792969 63.492188 27.882812 62.804688 27.886719 C 62.316406 27.890625 62.128906 27.875 61.945312 27.808594 C 61.449219 27.636719 61.050781 27.195312 60.875 26.636719 C 60.769531 26.316406 60.734375 25.195312 60.808594 24.648438 C 60.964844 23.464844 61.5 22.382812 62.179688 21.863281 C 62.894531 21.320312 63.929688 21.132812 64.679688 21.414062 C 65.132812 21.585938 65.5625 22.058594 65.753906 22.597656 C 65.800781 22.722656 65.851562 22.847656 65.871094 22.867188 C 65.898438 22.894531 67.492188 22.726562 67.53125 22.683594 C 67.578125 22.648438 67.324219 21.886719 67.136719 21.503906 C 66.957031 21.136719 66.855469 21 66.523438 20.667969 C 66.070312 20.21875 65.769531 20.039062 65.152344 19.855469 C 64.792969 19.75 64.628906 19.726562 64.035156 19.71875 C 63.65625 19.707031 63.277344 19.710938 63.199219 19.726562 Z M 63.199219 19.726562 "/>
<path style=" stroke:none;fill-rule:nonzero;fill:rgb(0%,50.196078%,24.313725%);fill-opacity:1;" d="M 104.96875 19.761719 C 103.855469 20 103.136719 20.628906 102.820312 21.621094 C 102.742188 21.878906 102.71875 22.058594 102.71875 22.480469 C 102.722656 23.117188 102.824219 23.484375 103.128906 23.9375 C 103.421875 24.367188 103.824219 24.636719 105.109375 25.28125 C 106.382812 25.917969 106.636719 26.105469 106.734375 26.476562 C 106.855469 26.933594 106.65625 27.414062 106.238281 27.664062 C 105.6875 27.988281 104.636719 28.007812 104.003906 27.703125 C 103.609375 27.507812 103.460938 27.21875 103.367188 26.4375 L 103.335938 26.191406 L 103.164062 26.214844 C 103.070312 26.230469 102.683594 26.253906 102.304688 26.269531 L 101.613281 26.304688 L 101.644531 26.703125 C 101.746094 28.078125 102.378906 28.9375 103.570312 29.328125 C 104.128906 29.511719 104.488281 29.554688 105.285156 29.53125 C 105.949219 29.511719 106.050781 29.5 106.433594 29.371094 C 107.027344 29.164062 107.261719 29.015625 107.6875 28.59375 C 108.308594 27.972656 108.546875 27.394531 108.546875 26.492188 C 108.546875 25.550781 108.21875 24.9375 107.441406 24.441406 C 107.246094 24.316406 106.65625 23.996094 106.128906 23.734375 C 105.019531 23.183594 104.703125 22.972656 104.546875 22.699219 C 104.332031 22.316406 104.445312 21.746094 104.777344 21.511719 C 105.023438 21.332031 105.292969 21.265625 105.757812 21.257812 C 106.324219 21.253906 106.644531 21.347656 106.933594 21.597656 C 107.171875 21.808594 107.308594 22.058594 107.382812 22.425781 L 107.441406 22.667969 L 107.792969 22.644531 C 107.992188 22.628906 108.378906 22.605469 108.65625 22.59375 L 109.160156 22.566406 L 109.125 22.304688 C 108.972656 21.078125 108.203125 20.175781 107.011719 19.832031 C 106.5625 19.703125 105.429688 19.660156 104.96875 19.761719 Z M 104.96875 19.761719 "/>
<path style=" stroke:none;fill-rule:nonzero;fill:rgb(0%,50.196078%,24.313725%);fill-opacity:1;" d="M 174.121094 19.746094 C 172.726562 19.976562 171.796875 21.058594 171.792969 22.460938 C 171.792969 23.320312 172.070312 23.9375 172.691406 24.441406 C 172.859375 24.574219 173.425781 24.890625 174.109375 25.238281 C 174.734375 25.554688 175.339844 25.878906 175.445312 25.960938 C 175.949219 26.320312 176 26.96875 175.570312 27.445312 C 175.25 27.804688 174.992188 27.886719 174.207031 27.890625 C 173.503906 27.890625 173.304688 27.851562 172.972656 27.621094 C 172.667969 27.421875 172.542969 27.167969 172.472656 26.621094 L 172.421875 26.1875 L 172.234375 26.214844 C 172.128906 26.230469 171.746094 26.253906 171.378906 26.269531 L 170.710938 26.304688 L 170.738281 26.726562 C 170.8125 27.910156 171.300781 28.699219 172.226562 29.144531 C 172.902344 29.464844 173.160156 29.519531 174.160156 29.519531 C 175.144531 29.519531 175.382812 29.472656 176.007812 29.164062 C 176.964844 28.695312 177.578125 27.761719 177.632812 26.699219 C 177.683594 25.675781 177.359375 24.988281 176.589844 24.476562 C 176.390625 24.347656 175.789062 24.023438 175.253906 23.753906 C 174.128906 23.1875 173.824219 22.996094 173.664062 22.753906 C 173.359375 22.300781 173.539062 21.660156 174.023438 21.40625 C 174.457031 21.191406 175.324219 21.203125 175.78125 21.4375 C 176.144531 21.617188 176.394531 21.988281 176.476562 22.449219 L 176.507812 22.644531 L 176.828125 22.632812 C 177.011719 22.628906 177.402344 22.609375 177.703125 22.59375 L 178.25 22.566406 L 178.222656 22.371094 C 178.15625 21.921875 178.089844 21.691406 177.894531 21.296875 C 177.375 20.222656 176.371094 19.683594 174.902344 19.699219 C 174.609375 19.703125 174.257812 19.722656 174.121094 19.746094 Z M 174.121094 19.746094 "/>
<path style=" stroke:none;fill-rule:nonzero;fill:rgb(0%,50.196078%,24.313725%);fill-opacity:1;" d="M 33.605469 20.09375 C 33.578125 20.246094 33.164062 22.378906 32.691406 24.835938 C 32.21875 27.292969 31.832031 29.328125 31.832031 29.351562 C 31.832031 29.414062 36.292969 29.421875 36.871094 29.355469 C 37.847656 29.242188 38.417969 29.007812 38.914062 28.5 C 39.734375 27.675781 40.03125 26.382812 39.613281 25.472656 C 39.425781 25.058594 38.910156 24.589844 38.554688 24.5 C 38.480469 24.484375 38.425781 24.453125 38.429688 24.4375 C 38.429688 24.421875 38.574219 24.339844 38.75 24.253906 C 39.574219 23.863281 40.015625 23.15625 40.019531 22.203125 C 40.027344 21.003906 39.375 20.191406 38.1875 19.945312 C 37.921875 19.890625 37.386719 19.867188 35.75 19.847656 L 33.65625 19.824219 Z M 37.640625 21.527344 C 37.890625 21.617188 38.039062 21.757812 38.152344 21.992188 C 38.421875 22.574219 38.039062 23.367188 37.398438 23.578125 C 37.066406 23.683594 34.683594 23.734375 34.71875 23.632812 C 34.734375 23.601562 34.835938 23.097656 34.941406 22.511719 L 35.148438 21.460938 L 36.292969 21.460938 C 37.203125 21.460938 37.480469 21.472656 37.640625 21.527344 Z M 37.042969 25.410156 C 37.390625 25.484375 37.617188 25.625 37.777344 25.863281 C 38 26.203125 38.011719 26.582031 37.816406 27.03125 C 37.613281 27.496094 37.234375 27.734375 36.570312 27.816406 C 36.230469 27.863281 33.921875 27.890625 33.921875 27.855469 C 33.921875 27.84375 34.023438 27.296875 34.152344 26.636719 C 34.28125 25.972656 34.386719 25.417969 34.386719 25.394531 C 34.386719 25.335938 36.769531 25.355469 37.042969 25.410156 Z M 37.042969 25.410156 "/>
<path style=" stroke:none;fill-rule:nonzero;fill:rgb(0%,50.196078%,24.313725%);fill-opacity:1;" d="M 44.984375 19.914062 C 44.875 20.117188 40.195312 29.117188 40.125 29.253906 L 40.046875 29.402344 L 41.910156 29.402344 L 42.429688 28.355469 L 42.953125 27.3125 L 46.445312 27.3125 L 46.570312 28.25 C 46.640625 28.769531 46.710938 29.238281 46.722656 29.300781 C 46.746094 29.402344 46.757812 29.402344 47.601562 29.402344 L 48.457031 29.402344 L 48.433594 29.300781 C 48.417969 29.238281 48.109375 27.144531 47.738281 24.640625 C 47.363281 22.136719 47.050781 20.03125 47.035156 19.957031 L 47.007812 19.832031 L 46.019531 19.832031 C 45.117188 19.832031 45.019531 19.84375 44.984375 19.914062 Z M 45.949219 23.691406 C 46.074219 24.648438 46.191406 25.484375 46.203125 25.554688 L 46.226562 25.6875 L 44.921875 25.6875 C 43.792969 25.6875 43.621094 25.675781 43.640625 25.617188 C 43.664062 25.554688 44.726562 23.628906 45.425781 22.375 C 45.5625 22.125 45.6875 21.929688 45.699219 21.9375 C 45.710938 21.953125 45.824219 22.742188 45.949219 23.691406 Z M 45.949219 23.691406 "/>
<path style=" stroke:none;fill-rule:nonzero;fill:rgb(0%,50.196078%,24.313725%);fill-opacity:1;" d="M 51.410156 19.957031 C 51.292969 20.535156 49.617188 29.304688 49.617188 29.347656 C 49.617188 29.386719 49.832031 29.402344 50.453125 29.402344 C 50.914062 29.402344 51.289062 29.386719 51.289062 29.375 C 51.289062 29.316406 52.5 23.0625 52.515625 23.046875 C 52.539062 23.027344 52.519531 22.988281 53.777344 26.390625 L 54.886719 29.402344 L 56.570312 29.402344 L 56.625 29.132812 C 56.90625 27.675781 58.394531 19.902344 58.394531 19.871094 C 58.394531 19.851562 58.019531 19.832031 57.558594 19.832031 C 57.097656 19.832031 56.722656 19.847656 56.722656 19.859375 C 56.722656 19.890625 55.570312 25.890625 55.535156 26.054688 C 55.519531 26.113281 55.496094 26.144531 55.476562 26.132812 C 55.460938 26.113281 54.925781 24.691406 54.285156 22.976562 L 53.125 19.855469 L 52.277344 19.84375 L 51.4375 19.832031 Z M 51.410156 19.957031 "/>
<path style=" stroke:none;fill-rule:nonzero;fill:rgb(0%,50.196078%,24.313725%);fill-opacity:1;" d="M 69.839844 19.890625 C 69.832031 19.921875 69.421875 22.03125 68.933594 24.570312 C 68.449219 27.113281 68.035156 29.238281 68.019531 29.300781 L 67.996094 29.402344 L 74.273438 29.402344 L 74.296875 29.300781 C 74.3125 29.238281 74.382812 28.886719 74.457031 28.503906 L 74.585938 27.824219 L 72.363281 27.824219 C 70.421875 27.824219 70.140625 27.8125 70.140625 27.753906 C 70.140625 27.714844 70.476562 25.941406 70.886719 23.8125 C 71.292969 21.6875 71.628906 19.921875 71.628906 19.890625 C 71.628906 19.804688 69.867188 19.808594 69.839844 19.890625 Z M 69.839844 19.890625 "/>
<path style=" stroke:none;fill-rule:nonzero;fill:rgb(0%,50.196078%,24.313725%);fill-opacity:1;" d="M 77.316406 24.574219 C 75.964844 27.179688 74.851562 29.332031 74.839844 29.355469 C 74.832031 29.382812 75.167969 29.402344 75.746094 29.402344 L 76.667969 29.402344 L 77.191406 28.355469 L 77.710938 27.3125 L 79.449219 27.3125 C 80.792969 27.3125 81.191406 27.324219 81.203125 27.367188 C 81.21875 27.398438 81.285156 27.875 81.359375 28.414062 L 81.492188 29.402344 L 82.339844 29.402344 C 83.046875 29.402344 83.191406 29.390625 83.191406 29.335938 C 83.191406 29.300781 82.878906 27.171875 82.496094 24.609375 C 82.113281 22.042969 81.796875 19.921875 81.796875 19.890625 C 81.796875 19.847656 81.566406 19.832031 80.789062 19.832031 L 79.777344 19.839844 Z M 80.734375 23.796875 C 80.863281 24.8125 80.964844 25.652344 80.953125 25.664062 C 80.9375 25.675781 80.355469 25.679688 79.652344 25.675781 L 78.371094 25.664062 L 79.421875 23.761719 C 79.996094 22.71875 80.472656 21.882812 80.480469 21.90625 C 80.488281 21.929688 80.601562 22.777344 80.734375 23.796875 Z M 80.734375 23.796875 "/>
<path style=" stroke:none;fill-rule:nonzero;fill:rgb(0%,50.196078%,24.313725%);fill-opacity:1;" d="M 85.285156 24.507812 C 84.789062 27.082031 84.371094 29.242188 84.359375 29.300781 L 84.339844 29.410156 L 86.515625 29.386719 C 88.921875 29.363281 89.03125 29.355469 89.769531 29.054688 C 90.722656 28.667969 91.480469 27.910156 92.046875 26.777344 C 92.390625 26.09375 92.582031 25.398438 92.667969 24.523438 C 92.871094 22.496094 92.199219 20.832031 90.921875 20.199219 C 90.304688 19.898438 90.132812 19.878906 88.042969 19.847656 L 86.1875 19.820312 Z M 89.769531 21.523438 C 90.0625 21.617188 90.417969 21.917969 90.582031 22.234375 C 90.933594 22.875 90.988281 24.148438 90.710938 25.234375 C 90.523438 25.976562 90.050781 26.820312 89.566406 27.273438 C 89.074219 27.730469 88.738281 27.824219 87.421875 27.855469 C 86.464844 27.882812 86.433594 27.878906 86.457031 27.792969 C 86.46875 27.75 86.742188 26.316406 87.066406 24.617188 C 87.390625 22.917969 87.664062 21.5 87.675781 21.464844 C 87.710938 21.371094 89.425781 21.421875 89.769531 21.523438 Z M 89.769531 21.523438 "/>
<path style=" stroke:none;fill-rule:nonzero;fill:rgb(0%,50.196078%,24.313725%);fill-opacity:1;" d="M 94.109375 24.539062 C 93.609375 27.121094 93.199219 29.277344 93.183594 29.316406 C 93.164062 29.398438 93.351562 29.402344 96.601562 29.402344 L 100.039062 29.402344 L 100.183594 28.660156 C 100.261719 28.25 100.324219 27.890625 100.324219 27.867188 C 100.324219 27.835938 99.4375 27.824219 97.796875 27.824219 C 95.414062 27.824219 95.265625 27.816406 95.265625 27.738281 C 95.265625 27.695312 95.355469 27.234375 95.46875 26.707031 C 95.578125 26.183594 95.695312 25.632812 95.730469 25.484375 L 95.78125 25.222656 L 98.050781 25.222656 C 100.171875 25.222656 100.320312 25.214844 100.34375 25.136719 C 100.359375 25.097656 100.421875 24.765625 100.488281 24.410156 C 100.554688 24.050781 100.617188 23.722656 100.632812 23.675781 C 100.65625 23.601562 100.527344 23.59375 98.375 23.59375 L 96.089844 23.59375 L 96.113281 23.488281 C 96.128906 23.433594 96.214844 22.988281 96.308594 22.503906 C 96.402344 22.015625 96.484375 21.585938 96.5 21.539062 C 96.523438 21.464844 96.675781 21.460938 98.863281 21.460938 C 101.050781 21.460938 101.203125 21.453125 101.226562 21.375 C 101.242188 21.332031 101.304688 21.003906 101.371094 20.644531 C 101.4375 20.289062 101.5 19.957031 101.515625 19.914062 C 101.539062 19.839844 101.363281 19.832031 98.273438 19.832031 L 95.007812 19.832031 Z M 94.109375 24.539062 "/>
<path style=" stroke:none;fill-rule:nonzero;fill:rgb(0%,50.196078%,24.313725%);fill-opacity:1;" d="M 111.40625 19.914062 C 111.390625 19.957031 110.984375 22.078125 110.496094 24.617188 C 110.007812 27.15625 109.597656 29.277344 109.585938 29.316406 C 109.5625 29.398438 109.628906 29.402344 110.46875 29.402344 C 111.289062 29.402344 111.375 29.390625 111.394531 29.316406 C 111.40625 29.277344 111.585938 28.351562 111.796875 27.265625 C 112 26.179688 112.179688 25.253906 112.195312 25.207031 C 112.21875 25.132812 112.339844 25.128906 113.910156 25.128906 L 115.605469 25.128906 L 115.574219 25.253906 C 115.5625 25.328125 115.378906 26.28125 115.167969 27.382812 L 114.78125 29.378906 L 115.664062 29.390625 C 116.152344 29.398438 116.566406 29.386719 116.578125 29.371094 C 116.597656 29.347656 117.015625 27.21875 117.507812 24.640625 C 118 22.058594 118.414062 19.921875 118.421875 19.890625 C 118.441406 19.847656 118.246094 19.832031 117.539062 19.832031 C 116.714844 19.832031 116.628906 19.84375 116.605469 19.914062 C 116.597656 19.957031 116.433594 20.792969 116.246094 21.769531 L 115.90625 23.550781 L 114.222656 23.550781 C 112.636719 23.550781 112.539062 23.542969 112.539062 23.464844 C 112.539062 23.394531 113.148438 20.152344 113.207031 19.914062 C 113.226562 19.839844 113.160156 19.832031 112.328125 19.832031 C 111.511719 19.832031 111.429688 19.84375 111.40625 19.914062 Z M 111.40625 19.914062 "/>
<path style=" stroke:none;fill-rule:nonzero;fill:rgb(0%,50.196078%,24.313725%);fill-opacity:1;" d="M 123.3125 24.417969 C 122.003906 26.945312 120.878906 29.09375 120.8125 29.203125 L 120.703125 29.402344 L 122.570312 29.402344 L 123.089844 28.355469 L 123.613281 27.3125 L 125.363281 27.3125 C 126.332031 27.3125 127.121094 27.316406 127.121094 27.324219 C 127.121094 27.332031 127.183594 27.785156 127.257812 28.332031 C 127.339844 28.882812 127.398438 29.347656 127.398438 29.363281 C 127.398438 29.386719 127.789062 29.402344 128.261719 29.402344 L 129.121094 29.402344 L 129.089844 29.183594 C 129.070312 29.058594 128.75 26.910156 128.378906 24.410156 L 127.695312 19.855469 L 126.695312 19.84375 L 125.699219 19.832031 Z M 126.632812 23.734375 C 126.75 24.640625 126.855469 25.453125 126.875 25.53125 L 126.898438 25.6875 L 125.585938 25.6875 C 124.867188 25.6875 124.289062 25.667969 124.296875 25.648438 C 124.304688 25.625 124.769531 24.777344 125.332031 23.761719 C 126.097656 22.375 126.359375 21.9375 126.386719 22.003906 C 126.40625 22.046875 126.515625 22.828125 126.632812 23.734375 Z M 126.632812 23.734375 "/>
<path style=" stroke:none;fill-rule:nonzero;fill:rgb(0%,50.196078%,24.313725%);fill-opacity:1;" d="M 131.976562 19.914062 C 131.964844 19.957031 131.554688 22.078125 131.066406 24.617188 C 130.578125 27.15625 130.167969 29.277344 130.15625 29.316406 C 130.132812 29.398438 130.199219 29.402344 131.039062 29.402344 C 131.859375 29.402344 131.945312 29.390625 131.96875 29.316406 C 131.980469 29.277344 132.390625 27.148438 132.878906 24.59375 C 133.367188 22.039062 133.773438 19.921875 133.785156 19.890625 C 133.796875 19.847656 133.601562 19.832031 132.902344 19.832031 C 132.082031 19.832031 132 19.84375 131.976562 19.914062 Z M 131.976562 19.914062 "/>
<path style=" stroke:none;fill-rule:nonzero;fill:rgb(0%,50.196078%,24.313725%);fill-opacity:1;" d="M 135.507812 19.890625 C 135.492188 19.921875 135.082031 22.03125 134.597656 24.570312 C 134.113281 27.113281 133.703125 29.238281 133.691406 29.300781 L 133.667969 29.402344 L 135.472656 29.402344 L 135.519531 29.15625 C 135.621094 28.671875 136.222656 25.527344 136.222656 25.492188 C 136.222656 25.441406 137.316406 25.445312 137.535156 25.496094 C 137.90625 25.582031 138.191406 25.878906 138.492188 26.507812 C 138.667969 26.871094 139.34375 28.625 139.5 29.136719 L 139.582031 29.402344 L 140.550781 29.402344 C 141.078125 29.402344 141.515625 29.390625 141.515625 29.382812 C 141.515625 29.351562 141.066406 28.183594 140.863281 27.707031 C 140.527344 26.890625 140.089844 26.042969 139.820312 25.695312 C 139.679688 25.507812 139.566406 25.347656 139.566406 25.332031 C 139.566406 25.324219 139.609375 25.3125 139.671875 25.3125 C 139.726562 25.3125 139.929688 25.273438 140.121094 25.214844 C 141.464844 24.84375 142.210938 23.824219 142.210938 22.351562 C 142.210938 21.300781 141.78125 20.453125 141.078125 20.128906 C 140.535156 19.882812 140.371094 19.871094 137.859375 19.847656 C 135.933594 19.828125 135.519531 19.832031 135.507812 19.890625 Z M 139.941406 21.554688 C 140.035156 21.597656 140.167969 21.714844 140.242188 21.8125 C 140.367188 21.972656 140.378906 22.015625 140.378906 22.40625 C 140.378906 22.878906 140.304688 23.074219 139.996094 23.414062 C 139.582031 23.875 139.214844 23.960938 137.648438 24 C 136.679688 24.023438 136.5 24.019531 136.519531 23.960938 C 136.53125 23.925781 136.640625 23.386719 136.753906 22.757812 C 136.871094 22.132812 136.976562 21.585938 136.992188 21.539062 C 137.015625 21.460938 137.097656 21.453125 138.394531 21.46875 C 139.550781 21.480469 139.800781 21.496094 139.941406 21.554688 Z M 139.941406 21.554688 "/>
<path style=" stroke:none;fill-rule:nonzero;fill:rgb(0%,50.196078%,24.313725%);fill-opacity:1;" d="M 144.375 19.914062 C 144.363281 19.957031 143.953125 22.078125 143.464844 24.617188 C 142.976562 27.15625 142.566406 29.277344 142.554688 29.324219 C 142.53125 29.398438 142.695312 29.402344 145.679688 29.390625 L 148.828125 29.378906 L 148.949219 28.75 C 149.015625 28.40625 149.078125 28.054688 149.097656 27.972656 L 149.128906 27.824219 L 146.902344 27.824219 C 145.304688 27.824219 144.671875 27.808594 144.671875 27.769531 C 144.671875 27.707031 146.152344 19.972656 146.183594 19.890625 C 146.195312 19.847656 146 19.832031 145.300781 19.832031 C 144.480469 19.832031 144.398438 19.84375 144.375 19.914062 Z M 144.375 19.914062 "/>
<path style=" stroke:none;fill-rule:nonzero;fill:rgb(0%,50.196078%,24.313725%);fill-opacity:1;" d="M 150.847656 24.511719 C 150.355469 27.089844 149.9375 29.238281 149.929688 29.292969 L 149.910156 29.402344 L 150.820312 29.402344 C 151.324219 29.402344 151.730469 29.386719 151.730469 29.375 C 151.730469 29.359375 152.140625 27.222656 152.636719 24.632812 C 153.132812 22.035156 153.542969 19.898438 153.542969 19.875 C 153.542969 19.851562 153.136719 19.832031 152.644531 19.832031 L 151.75 19.832031 Z M 150.847656 24.511719 "/>
<path style=" stroke:none;fill-rule:nonzero;fill:rgb(0%,50.196078%,24.313725%);fill-opacity:1;" d="M 154.382812 24.535156 C 153.886719 27.121094 153.46875 29.277344 153.457031 29.316406 C 153.441406 29.398438 153.5 29.402344 154.277344 29.402344 C 154.902344 29.402344 155.117188 29.386719 155.128906 29.339844 C 155.144531 29.3125 155.421875 27.882812 155.753906 26.164062 C 156.082031 24.449219 156.359375 23.058594 156.375 23.066406 C 156.390625 23.082031 156.921875 24.507812 157.5625 26.234375 L 158.730469 29.378906 L 159.570312 29.390625 C 160.339844 29.402344 160.410156 29.398438 160.433594 29.324219 C 160.445312 29.277344 160.855469 27.148438 161.34375 24.59375 C 161.832031 22.039062 162.238281 19.921875 162.25 19.890625 C 162.261719 19.847656 162.082031 19.832031 161.421875 19.832031 L 160.578125 19.832031 L 159.976562 22.960938 C 159.648438 24.671875 159.371094 26.105469 159.351562 26.132812 C 159.335938 26.164062 158.792969 24.757812 158.144531 23.011719 L 156.964844 19.832031 L 155.285156 19.832031 Z M 154.382812 24.535156 "/>
<path style=" stroke:none;fill-rule:nonzero;fill:rgb(0%,50.196078%,24.313725%);fill-opacity:1;" d="M 164.046875 20.097656 C 163.507812 22.875 162.273438 29.351562 162.273438 29.375 C 162.273438 29.386719 163.8125 29.402344 165.699219 29.402344 L 169.125 29.402344 L 169.257812 28.703125 C 169.324219 28.324219 169.394531 27.964844 169.410156 27.914062 C 169.433594 27.824219 169.421875 27.824219 166.871094 27.824219 C 164.453125 27.824219 164.3125 27.816406 164.332031 27.738281 C 164.347656 27.695312 164.464844 27.148438 164.59375 26.523438 C 164.722656 25.894531 164.84375 25.347656 164.855469 25.300781 C 164.878906 25.226562 165.027344 25.222656 167.152344 25.222656 C 168.402344 25.222656 169.421875 25.210938 169.421875 25.207031 C 169.421875 25.199219 169.484375 24.867188 169.5625 24.472656 C 169.636719 24.078125 169.703125 23.722656 169.703125 23.675781 C 169.703125 23.601562 169.5625 23.59375 167.445312 23.59375 L 165.1875 23.59375 L 165.210938 23.464844 C 165.222656 23.394531 165.3125 22.917969 165.410156 22.402344 L 165.59375 21.460938 L 167.953125 21.460938 C 169.246094 21.460938 170.304688 21.449219 170.304688 21.441406 C 170.304688 21.429688 170.371094 21.09375 170.445312 20.691406 C 170.523438 20.292969 170.585938 19.933594 170.585938 19.898438 C 170.585938 19.84375 170.105469 19.832031 167.339844 19.832031 L 164.097656 19.832031 Z M 164.046875 20.097656 "/>
</g>
</svg>
